<svg width="450" height="560" viewBox="0 0 450 560" fill="none" xmlns="http://www.w3.org/2000/svg">
<path d="M441 307C441 442 346.5 509.5 234.18 548.65C228.298 550.643 221.909 550.548 216.09 548.38C103.5 509.5 9 442 9 307V118C9 110.84 11.8446 103.972 16.9081 98.9085C21.9716 93.8451 28.8392 91.0004 36 91.0004C90 91.0004 157.5 58.6004 204.48 17.5604C210.2 12.6734 217.477 9.98828 225 9.98828C232.523 9.98828 239.8 12.6734 245.52 17.5604C292.77 58.8704 360 91.0004 414 91.0004C421.161 91.0004 428.028 93.8451 433.092 98.9085C438.155 103.972 441 110.84 441 118V307Z" stroke="white" stroke-width="18" stroke-linecap="round" stroke-linejoin="round"/>
</svg>
