<svg width="24" height="24" viewBox="0 0 24 24" fill="none" xmlns="http://www.w3.org/2000/svg">
<path d="M12.0022 1.60938L2.99552 6.80937L2.99219 17.2036L11.9955 22.3978L21.0022 17.1978L21.0055 6.8036L12.0022 1.60938ZM19.0063 16.0408L11.9914 20.0908L4.99271 16.0486L4.99145 7.96643L11.9976 3.92143L18.9963 7.9636L19.0063 16.0408Z" fill="black" fill-opacity="0.56"/>
<path d="M8.7263 7.23333C8.27175 7.72222 8.02933 8.33333 7.99902 9.06667V9.3875H10.1808V9.06667C10.2111 8.85278 10.3324 8.73056 10.5445 8.7H13.1354C13.5596 8.73056 13.7869 8.95972 13.8172 9.3875C13.8172 9.6625 13.696 9.86111 13.4536 9.98333L11.4536 11.175L10.9081 11.4958V13.8333H13.0899V12.7333L14.5445 11.9083C15.4839 11.3278 15.9687 10.4875 15.999 9.3875C15.9687 8.5625 15.696 7.89028 15.1808 7.37083C14.6354 6.82083 13.9536 6.53056 13.1354 6.5H10.5445C9.81721 6.53056 9.21114 6.775 8.7263 7.23333Z" fill="black" fill-opacity="0.56"/>
<path d="M13.0899 15.3H10.9081V17.5H13.0899V15.3Z" fill="black" fill-opacity="0.56"/>
</svg>
