<svg width="24" height="24" viewBox="0 0 24 24" fill="none" xmlns="http://www.w3.org/2000/svg">
<path d="M7.5 16.5L12 19L16.5 16.5L12 14L7.5 16.5Z" fill="#707070"/>
<path fillRule="evenodd" clipRule="evenodd" d="M12.0022 22.3984L2.99552 17.1984L2.99219 6.80421L11.9955 1.60999L21.0022 6.80999L21.0055 17.2042L12.0022 22.3984ZM18.2709 7.54251L12.9973 4.49776L12.9987 11.3166L13.0055 11.3125L18.9979 14.7367L19.0045 9.42841L16.127 11.0897L15.127 9.35766L18.2709 7.54251ZM11.0009 11.3177L11.0268 4.47417L5.64134 7.58459L8.89453 9.21118L8.0001 11L4.99247 9.49622L4.99165 14.7414L10.9922 11.3125L11.0009 11.3177ZM11.9976 20.0864L5.93322 16.5851L11.9989 13.0857L18.0621 16.5838L11.9976 20.0864Z" fill="#707070"/>
</svg>
