<svg width="24" height="24" viewBox="0 0 24 24" fill="none" xmlns="http://www.w3.org/2000/svg">
<path d="M17.0348 2H19.5522V4.14844C19.5522 5.08594 19.7095 5.9974 20.0242 6.88281L20.1029 7.19531C20.2864 7.74219 20.5356 8.3151 20.8502 8.91406C21.2173 9.61719 21.5189 10.4115 21.7549 11.2969C21.9909 12.2083 22.0565 13.1849 21.9516 14.2266C21.7943 16.1536 20.7847 18.0938 18.9228 20.0469V22H16.4054V21.0625H15.1467V22H12.6293V21.0625H11.3707V22H8.85325V21.0625H7.59455V22H5.07716V20.0469C3.21533 18.0938 2.20575 16.1536 2.04841 14.2266C1.94352 13.1849 2.00908 12.2083 2.24508 11.2969C2.48109 10.4115 2.78265 9.61719 3.14977 8.91406C3.46445 8.3151 3.71357 7.74219 3.89713 7.19531L4.01513 6.88281C4.30358 5.9974 4.44781 5.08594 4.44781 4.14844V2H6.9652V4.14844C6.9652 5.34635 6.76853 6.53125 6.37519 7.70312L6.29652 7.97656C6.03429 8.73177 5.73273 9.42188 5.39183 10.0469C4.73626 11.2188 4.46092 12.5208 4.56581 13.9531C4.61826 14.6302 4.84115 15.3594 5.23449 16.1406C5.62784 16.8958 6.2703 17.7031 7.16188 18.5625H16.8381C17.7297 17.7031 18.3722 16.8958 18.7655 16.1406C19.1588 15.3594 19.3817 14.6302 19.4342 13.9531C19.5391 12.5208 19.2637 11.2057 18.6082 10.0078C18.2673 9.40885 17.9657 8.73177 17.7035 7.97656L17.6248 7.70312C17.2315 6.53125 17.0348 5.34635 17.0348 4.14844V2ZM12.944 12H11.056V5.75H12.944V12ZM12.944 13.25V15.125H11.056V13.25H12.944Z" fill="black" fill-opacity="0.56"/>
</svg>
