<svg width="24" height="24" viewBox="0 0 24 24" fill="none" xmlns="http://www.w3.org/2000/svg">
<path d="M12 22C13.875 21.974 15.5547 21.5182 17.0391 20.6328C18.5495 19.7474 19.7474 18.5495 20.6328 17.0391C21.5182 15.5547 21.974 13.875 22 12C21.974 10.125 21.5182 8.44531 20.6328 6.96094C19.7474 5.45052 18.5495 4.2526 17.0391 3.36719C15.5547 2.48177 13.875 2.02604 12 2C10.125 2.02604 8.44531 2.48177 6.96094 3.36719C5.45052 4.2526 4.2526 5.45052 3.36719 6.96094C2.48177 8.44531 2.02604 10.125 2 12C2.02604 13.875 2.48177 15.5547 3.36719 17.0391C4.2526 18.5495 5.45052 19.7474 6.96094 20.6328C8.44531 21.5182 10.125 21.974 12 22ZM13.25 12C13.25 11.6354 13.1328 11.3359 12.8984 11.1016C12.6641 10.8672 12.3646 10.75 12 10.75C11.6354 10.75 11.3359 10.8672 11.1016 11.1016C10.8672 11.3359 10.75 11.6354 10.75 12C10.75 12.3646 10.8672 12.6641 11.1016 12.8984C11.3359 13.1328 11.6354 13.25 12 13.25C12.3646 13.25 12.6641 13.1328 12.8984 12.8984C13.1328 12.6641 13.25 12.3646 13.25 12ZM12.625 14.4219V16.9609C13.4844 16.8568 14.2656 16.5443 14.9688 16.0234C15.6458 15.5286 16.1667 14.9036 16.5312 14.1484L14.1094 13.3672C13.7448 13.888 13.25 14.2396 12.625 14.4219ZM14.5 12.1562L16.9219 12.9375C16.974 12.625 17 12.3125 17 12C16.9479 10.5156 16.4271 9.30469 15.4375 8.36719L13.9141 10.3984C14.2786 10.8411 14.474 11.375 14.5 12C14.5 12.0521 14.5 12.1042 14.5 12.1562ZM12.9375 9.69531L14.4219 7.625C13.6927 7.20833 12.8854 7 12 7C11.1146 7 10.3073 7.20833 9.57812 7.625L10.6719 9.14844L11.0625 9.69531C11.349 9.5651 11.6615 9.5 12 9.5C12.3125 9.5 12.625 9.5651 12.9375 9.69531ZM8.5625 8.36719C7.57292 9.30469 7.05208 10.5156 7 12C7 12.3125 7.02604 12.625 7.07812 12.9375L9.5 12.1562C9.5 12.1042 9.5 12.0521 9.5 12C9.52604 11.375 9.72135 10.8411 10.0859 10.3984L9.65625 9.89062L8.5625 8.36719ZM9.89062 13.3281L7.46875 14.1484C7.83333 14.9036 8.35417 15.5286 9.03125 16.0234C9.70833 16.5182 10.4896 16.8307 11.375 16.9609V14.4219C10.75 14.2396 10.2552 13.875 9.89062 13.3281ZM12 18.25C10.2292 18.1979 8.75781 17.5859 7.58594 16.4141C6.41406 15.2422 5.80208 13.7708 5.75 12C5.80208 10.2292 6.41406 8.75781 7.58594 7.58594C8.75781 6.41406 10.2292 5.80208 12 5.75C13.7708 5.80208 15.2422 6.41406 16.4141 7.58594C17.5859 8.75781 18.1979 10.2292 18.25 12C18.1979 13.7708 17.5859 15.2422 16.4141 16.4141C15.2422 17.5859 13.7708 18.1979 12 18.25Z" fill="black" fill-opacity="0.56"/>
</svg>
